<?xml version="1.0" encoding="UTF-8" standalone="no"?>
<svg
   xmlns:dc="http://purl.org/dc/elements/1.1/"
   xmlns:cc="http://creativecommons.org/ns#"
   xmlns:rdf="http://www.w3.org/1999/02/22-rdf-syntax-ns#"
   xmlns:svg="http://www.w3.org/2000/svg"
   xmlns="http://www.w3.org/2000/svg"
   id="svg8"
   version="1.1"
   viewBox="0 0 100 100"
   height="100mm"
   width="100mm">
  <defs
     id="defs2">
    <marker
       orient="auto"
       refY="0"
       refX="0"
       id="marker3968"
       style="overflow:visible">
      <path
         id="path3966"
         d="M 0,0 5,-5 -12.5,0 5,5 Z"
         style="fill:#ffffff;fill-opacity:1;fill-rule:evenodd;stroke:#000000;stroke-width:1.00000003pt;stroke-opacity:1"
         transform="matrix(0.8,0,0,0.8,10,0)" />
    </marker>
    <marker
       style="overflow:visible"
       id="marker3654"
       refX="0"
       refY="0"
       orient="auto">
      <path
         transform="matrix(0.8,0,0,0.8,10,0)"
         style="fill:#000000;fill-opacity:1;fill-rule:evenodd;stroke:#000000;stroke-width:1.00000003pt;stroke-opacity:1"
         d="M 0,0 5,-5 -12.5,0 5,5 Z"
         id="path3652" />
    </marker>
    <marker
       style="overflow:visible"
       id="marker3506"
       refX="0"
       refY="0"
       orient="auto">
      <path
         transform="matrix(0.8,0,0,0.8,10,0)"
         style="fill:#ffffff;fill-opacity:1;fill-rule:evenodd;stroke:#000000;stroke-width:1.00000003pt;stroke-opacity:1"
         d="M 0,0 5,-5 -12.5,0 5,5 Z"
         id="path3504" />
    </marker>
    <marker
       style="overflow:visible"
       id="marker3364"
       refX="0"
       refY="0"
       orient="auto">
      <path
         transform="matrix(0.8,0,0,0.8,10,0)"
         style="fill:#000000;fill-opacity:1;fill-rule:evenodd;stroke:#000000;stroke-width:1.00000003pt;stroke-opacity:1"
         d="M 0,0 5,-5 -12.5,0 5,5 Z"
         id="path3362" />
    </marker>
    <marker
       style="overflow:visible"
       id="marker3228"
       refX="0"
       refY="0"
       orient="auto">
      <path
         transform="matrix(0.8,0,0,0.8,10,0)"
         style="fill:#000000;fill-opacity:1;fill-rule:evenodd;stroke:#000000;stroke-width:1.00000003pt;stroke-opacity:1"
         d="M 0,0 5,-5 -12.5,0 5,5 Z"
         id="path3226" />
    </marker>
    <marker
       style="overflow:visible"
       id="marker3098"
       refX="0"
       refY="0"
       orient="auto">
      <path
         transform="matrix(0.8,0,0,0.8,10,0)"
         style="fill:#000000;fill-opacity:1;fill-rule:evenodd;stroke:#000000;stroke-width:1.00000003pt;stroke-opacity:1"
         d="M 0,0 5,-5 -12.5,0 5,5 Z"
         id="path3096" />
    </marker>
    <marker
       style="overflow:visible"
       id="marker2974"
       refX="0"
       refY="0"
       orient="auto">
      <path
         transform="matrix(0.8,0,0,0.8,10,0)"
         style="fill:#000000;fill-opacity:1;fill-rule:evenodd;stroke:#000000;stroke-width:1.00000003pt;stroke-opacity:1"
         d="M 0,0 5,-5 -12.5,0 5,5 Z"
         id="path2972" />
    </marker>
    <marker
       style="overflow:visible"
       id="marker2856"
       refX="0"
       refY="0"
       orient="auto">
      <path
         transform="matrix(0.8,0,0,0.8,10,0)"
         style="fill:#000000;fill-opacity:1;fill-rule:evenodd;stroke:#000000;stroke-width:1.00000003pt;stroke-opacity:1"
         d="M 0,0 5,-5 -12.5,0 5,5 Z"
         id="path2854" />
    </marker>
    <marker
       style="overflow:visible"
       id="marker2744"
       refX="0"
       refY="0"
       orient="auto">
      <path
         transform="matrix(0.8,0,0,0.8,10,0)"
         style="fill:#000000;fill-opacity:1;fill-rule:evenodd;stroke:#000000;stroke-width:1.00000003pt;stroke-opacity:1"
         d="M 0,0 5,-5 -12.5,0 5,5 Z"
         id="path2742" />
    </marker>
    <marker
       style="overflow:visible"
       id="marker2638"
       refX="0"
       refY="0"
       orient="auto">
      <path
         transform="matrix(0.8,0,0,0.8,10,0)"
         style="fill:#000000;fill-opacity:1;fill-rule:evenodd;stroke:#000000;stroke-width:1.00000003pt;stroke-opacity:1"
         d="M 0,0 5,-5 -12.5,0 5,5 Z"
         id="path2636" />
    </marker>
    <marker
       style="overflow:visible"
       id="marker2538"
       refX="0"
       refY="0"
       orient="auto">
      <path
         transform="matrix(0.8,0,0,0.8,10,0)"
         style="fill:#000000;fill-opacity:1;fill-rule:evenodd;stroke:#000000;stroke-width:1.00000003pt;stroke-opacity:1"
         d="M 0,0 5,-5 -12.5,0 5,5 Z"
         id="path2536" />
    </marker>
    <marker
       style="overflow:visible"
       id="marker2444"
       refX="0"
       refY="0"
       orient="auto">
      <path
         transform="matrix(0.8,0,0,0.8,10,0)"
         style="fill:#000000;fill-opacity:1;fill-rule:evenodd;stroke:#000000;stroke-width:1.00000003pt;stroke-opacity:1"
         d="M 0,0 5,-5 -12.5,0 5,5 Z"
         id="path2442" />
    </marker>
    <marker
       style="overflow:visible"
       id="marker2356"
       refX="0"
       refY="0"
       orient="auto">
      <path
         transform="matrix(0.8,0,0,0.8,10,0)"
         style="fill:#000000;fill-opacity:1;fill-rule:evenodd;stroke:#000000;stroke-width:1.00000003pt;stroke-opacity:1"
         d="M 0,0 5,-5 -12.5,0 5,5 Z"
         id="path2354" />
    </marker>
    <marker
       style="overflow:visible"
       id="marker2274"
       refX="0"
       refY="0"
       orient="auto">
      <path
         transform="matrix(0.8,0,0,0.8,10,0)"
         style="fill:#000000;fill-opacity:1;fill-rule:evenodd;stroke:#000000;stroke-width:1.00000003pt;stroke-opacity:1"
         d="M 0,0 5,-5 -12.5,0 5,5 Z"
         id="path2272" />
    </marker>
    <marker
       style="overflow:visible"
       id="marker2198"
       refX="0"
       refY="0"
       orient="auto">
      <path
         transform="matrix(0.8,0,0,0.8,10,0)"
         style="fill:#000000;fill-opacity:1;fill-rule:evenodd;stroke:#000000;stroke-width:1.00000003pt;stroke-opacity:1"
         d="M 0,0 5,-5 -12.5,0 5,5 Z"
         id="path2196" />
    </marker>
    <marker
       style="overflow:visible"
       id="marker2128"
       refX="0"
       refY="0"
       orient="auto">
      <path
         transform="matrix(0.8,0,0,0.8,10,0)"
         style="fill:#000000;fill-opacity:1;fill-rule:evenodd;stroke:#000000;stroke-width:1.00000003pt;stroke-opacity:1"
         d="M 0,0 5,-5 -12.5,0 5,5 Z"
         id="path2126" />
    </marker>
    <marker
       style="overflow:visible"
       id="marker2064"
       refX="0"
       refY="0"
       orient="auto">
      <path
         transform="matrix(0.8,0,0,0.8,10,0)"
         style="fill:#000000;fill-opacity:1;fill-rule:evenodd;stroke:#000000;stroke-width:1.00000003pt;stroke-opacity:1"
         d="M 0,0 5,-5 -12.5,0 5,5 Z"
         id="path2062" />
    </marker>
    <marker
       style="overflow:visible"
       id="marker2006"
       refX="0"
       refY="0"
       orient="auto">
      <path
         transform="matrix(0.8,0,0,0.8,10,0)"
         style="fill:#000000;fill-opacity:1;fill-rule:evenodd;stroke:#000000;stroke-width:1.00000003pt;stroke-opacity:1"
         d="M 0,0 5,-5 -12.5,0 5,5 Z"
         id="path2004" />
    </marker>
    <marker
       style="overflow:visible"
       id="marker1954"
       refX="0"
       refY="0"
       orient="auto">
      <path
         transform="matrix(0.8,0,0,0.8,10,0)"
         style="fill:#000000;fill-opacity:1;fill-rule:evenodd;stroke:#000000;stroke-width:1.00000003pt;stroke-opacity:1"
         d="M 0,0 5,-5 -12.5,0 5,5 Z"
         id="path1952" />
    </marker>
    <marker
       style="overflow:visible"
       id="marker1908"
       refX="0"
       refY="0"
       orient="auto">
      <path
         transform="matrix(0.8,0,0,0.8,10,0)"
         style="fill:#fb0000;fill-opacity:1;fill-rule:evenodd;stroke:#ffffff;stroke-width:1.00000003pt;stroke-opacity:1"
         d="M 0,0 5,-5 -12.5,0 5,5 Z"
         id="path1906" />
    </marker>
    <marker
       style="overflow:visible"
       id="marker1868"
       refX="0"
       refY="0"
       orient="auto">
      <path
         transform="matrix(0.8,0,0,0.8,10,0)"
         style="fill:#fb0000;fill-opacity:1;fill-rule:evenodd;stroke:#ffffff;stroke-width:1.00000003pt;stroke-opacity:1"
         d="M 0,0 5,-5 -12.5,0 5,5 Z"
         id="path1866" />
    </marker>
    <marker
       style="overflow:visible"
       id="marker1834"
       refX="0"
       refY="0"
       orient="auto">
      <path
         transform="matrix(0.8,0,0,0.8,10,0)"
         style="fill:#fb0000;fill-opacity:1;fill-rule:evenodd;stroke:#ffffff;stroke-width:1.00000003pt;stroke-opacity:1"
         d="M 0,0 5,-5 -12.5,0 5,5 Z"
         id="path1832" />
    </marker>
    <marker
       style="overflow:visible"
       id="marker1806"
       refX="0"
       refY="0"
       orient="auto">
      <path
         transform="matrix(0.8,0,0,0.8,10,0)"
         style="fill:#fb0000;fill-opacity:1;fill-rule:evenodd;stroke:#ffffff;stroke-width:1.00000003pt;stroke-opacity:1"
         d="M 0,0 5,-5 -12.5,0 5,5 Z"
         id="path1804" />
    </marker>
    <marker
       style="overflow:visible"
       id="Arrow1Lstart"
       refX="0"
       refY="0"
       orient="auto">
      <path
         transform="matrix(0.8,0,0,0.8,10,0)"
         style="fill:#fb0000;fill-opacity:1;fill-rule:evenodd;stroke:#ffffff;stroke-width:1.00000003pt;stroke-opacity:1"
         d="M 0,0 5,-5 -12.5,0 5,5 Z"
         id="path1522" />
    </marker>
  </defs>
  <metadata
     id="metadata5">
    <rdf:RDF>
      <cc:Work
         rdf:about="">
        <dc:format>image/svg+xml</dc:format>
        <dc:type
           rdf:resource="http://purl.org/dc/dcmitype/StillImage" />
        <dc:title></dc:title>
      </cc:Work>
    </rdf:RDF>
  </metadata>
  <g
     transform="translate(-56.064561,-93.906453)"
     id="layer1">
    <path
       id="path1488"
       d="m 135.59522,167.68511 -1.75952,-0.76473 -0.37338,0.52623 c -0.61887,0.87224 -0.83689,0.80873 -0.91198,-0.26563 -0.0202,-0.28909 -0.0714,-0.54597 -0.1139,-0.57084 -0.0425,-0.0248 -0.90918,-0.1472 -1.92612,-0.27189 -1.01695,-0.12468 -1.87088,-0.23181 -1.89764,-0.23806 -0.0267,-0.006 0.007,-0.19239 0.075,-0.4137 l 0.12396,-0.40224 2.00575,-0.39271 c 1.10317,-0.216 2.01297,-0.42773 2.02178,-0.47054 0.009,-0.0427 0.059,-0.52702 0.1116,-1.076 0.11288,-1.17906 0.32512,-2.23362 0.80315,-3.99068 l 0.35018,-1.28707 -1.52108,-0.5506 -1.52107,-0.5506 -2.60341,-0.13281 c -1.43187,-0.0731 -2.62226,-0.13682 -2.64529,-0.14169 -0.0231,-0.005 -0.0264,-0.083 -0.007,-0.17377 0.0192,-0.0906 0.0147,-0.17044 -0.009,-0.17721 -0.11527,-0.0322 -2.56623,-0.11654 -2.6166,-0.0899 -0.15221,0.0806 -0.15022,-0.21122 0.003,-0.47306 0.36088,-0.61587 0.33335,-0.60887 4.4216,-1.12411 2.08031,-0.26217 3.81943,-0.49632 3.86473,-0.52032 0.0453,-0.024 0.21893,-0.52158 0.38589,-1.1057 0.18681,-0.65358 0.36063,-1.0918 0.4521,-1.13934 0.25277,-0.13144 0.78464,-0.048 1.04207,0.16357 0.30511,0.25072 0.3153,0.4025 0.081,1.20604 -0.0944,0.32194 -0.14924,0.59076 -0.12291,0.59706 0.10891,0.026 2.00868,-0.32502 2.05822,-0.38029 0.0295,-0.033 0.37799,-1.07972 0.77409,-2.32595 0.77615,-2.44296 1.21756,-3.39357 1.93684,-4.17457 0.48194,-0.52331 0.88822,-0.76468 1.04983,-0.62371 0.1553,0.13538 0.3557,0.86045 0.42415,1.53452 0.10717,1.05533 -0.0403,1.87779 -1.11432,6.2143 -0.0557,0.22494 -0.0434,0.23846 0.85448,0.94 l 0.91102,0.71177 0.0649,-0.33734 c 0.15646,-0.81408 0.29414,-1.16948 0.49403,-1.27538 0.24608,-0.13036 0.91256,0.0337 1.13342,0.27887 0.18377,0.20408 0.13175,0.58677 -0.22749,1.67335 l -0.23438,0.70854 2.91636,2.31617 c 1.87372,1.4881 2.96334,2.40484 3.04775,2.56419 0.12441,0.23483 0.13598,1.0029 0.016,1.0608 -0.0307,0.0146 -0.51372,-0.209 -1.07356,-0.49725 -1.48494,-0.76455 -1.36462,-0.71955 -1.43931,-0.53829 -0.0356,0.0861 -0.0817,0.14885 -0.10262,0.13954 -0.0209,-0.01 -1.03678,-0.54404 -2.2573,-1.18823 l -2.21914,-1.17126 -1.36598,-0.2754 c -0.7513,-0.15141 -1.41631,-0.26927 -1.47781,-0.26181 -0.0615,0.007 -0.27851,0.45668 -0.4822,0.99826 -0.53033,1.41015 -0.95968,2.41787 -1.60126,3.75866 -0.30915,0.6461 -0.57608,1.21557 -0.59318,1.26551 -0.0169,0.05 0.60477,0.67358 1.38194,1.38586 l 1.41305,1.29507 -0.0611,0.36838 c -0.0336,0.20261 -0.0876,0.38241 -0.11996,0.39954 -0.0323,0.0173 -0.85057,-0.31303 -1.81831,-0.73358 z"
       style="fill:#ffffff;fill-opacity:1;stroke-width:0.4039107;stroke-miterlimit:4;stroke-dasharray:none;stroke-dashoffset:0" />
    <path
       transform="rotate(160.94202)"
       d="m -67.606334,-204.01851 a 35.535671,35.535671 0 0 1 35.696521,3.55869 35.535671,35.535671 0 0 1 14.406035,32.85379"
       id="path4854"
       style="opacity:1;fill:none;fill-opacity:1;stroke:#ffffff;stroke-width:2.36230588;stroke-linecap:round;stroke-linejoin:round;stroke-miterlimit:4;stroke-dasharray:7.08691792, 7.08691792;stroke-dashoffset:0;stroke-opacity:1;paint-order:normal" />
  </g>
</svg>
