<?xml version="1.0" encoding="UTF-8" standalone="no"?>
<svg
   xmlns:dc="http://purl.org/dc/elements/1.1/"
   xmlns:cc="http://creativecommons.org/ns#"
   xmlns:rdf="http://www.w3.org/1999/02/22-rdf-syntax-ns#"
   xmlns:svg="http://www.w3.org/2000/svg"
   xmlns="http://www.w3.org/2000/svg"
   id="svg8"
   version="1.1"
   viewBox="0 0 210 297"
   height="297mm"
   width="210mm">
  <defs
     id="defs2" />
  <metadata
     id="metadata5">
    <rdf:RDF>
      <cc:Work
         rdf:about="">
        <dc:format>image/svg+xml</dc:format>
        <dc:type
           rdf:resource="http://purl.org/dc/dcmitype/StillImage" />
        <dc:title></dc:title>
      </cc:Work>
    </rdf:RDF>
  </metadata>
  <path
     style="fill:#6c9b9f;fill-opacity:1;stroke:none;stroke-width:0.26458332px;stroke-linecap:butt;stroke-linejoin:miter;stroke-opacity:1"
     d="M 2.2742539,161.67811 C 66.740459,194.11602 130.16839,193.11567 195.72113,157.4531 c -24.57427,1.89235 -35.5041,-21.79864 -51.51152,-35.96913 l -35.9808,30.79145 H 85.576271 l -30.555263,-26.159 C 38.83294,138.89977 28.132455,155.34151 2.2742539,161.67811 Z"
     id="path816" />
  <g
     id="layer1">
    <path
       id="path817"
       d="M 2.2742539,161.67811 C 24.636528,159.60033 43.75669,139.30249 55.021009,126.11642 c 6.547946,10.70425 23.553154,30.18302 42.189355,30.57832 20.218766,-0.29166 34.899536,-20.76885 46.999246,-35.21077 12.22429,24.51143 31.41541,36.82097 51.51152,35.96913 -25.70423,-5.95309 -42.46676,-32.07171 -50.50421,-48.30086 -7.45462,9.95468 -27.83789,42.65507 -47.939151,42.78317 -20.708102,-0.67653 -36.474238,-24.18348 -42.340423,-39.3944 -8.478112,18.32001 -22.039456,35.84363 -52.6630921,49.1371 z"
       style="fill:#ffffff;fill-opacity:1;stroke:#ffffff;stroke-width:1.98075318;stroke-linecap:butt;stroke-linejoin:round;stroke-miterlimit:4;stroke-dasharray:none;stroke-opacity:1" />
  </g>
</svg>
