<?xml version="1.0" encoding="UTF-8" standalone="no"?>
<svg
   xmlns:dc="http://purl.org/dc/elements/1.1/"
   xmlns:cc="http://creativecommons.org/ns#"
   xmlns:rdf="http://www.w3.org/1999/02/22-rdf-syntax-ns#"
   xmlns:svg="http://www.w3.org/2000/svg"
   xmlns="http://www.w3.org/2000/svg"
   xmlns:xlink="http://www.w3.org/1999/xlink"
   id="svg8"
   version="1.1"
   viewBox="0 0 180 180"
   height="180mm"
   width="180mm">
  <defs
     id="defs2">
    <linearGradient
       id="linearGradient823">
      <stop
         id="stop819"
         offset="0"
         style="stop-color:#ffffff;stop-opacity:1;" />
      <stop
         id="stop821"
         offset="1"
         style="stop-color:#ffffff;stop-opacity:0.13636364" />
    </linearGradient>
    <radialGradient
       gradientTransform="matrix(0.83355766,0.02304294,-0.0226696,0.82005356,19.672417,35.175002)"
       gradientUnits="userSpaceOnUse"
       r="87.260954"
       fy="207"
       fx="90"
       cy="207"
       cx="90"
       id="radialGradient825"
       xlink:href="#linearGradient823" />
  </defs>
  <metadata
     id="metadata5">
    <rdf:RDF>
      <cc:Work
         rdf:about="">
        <dc:format>image/svg+xml</dc:format>
        <dc:type
           rdf:resource="http://purl.org/dc/dcmitype/StillImage" />
        <dc:title></dc:title>
      </cc:Work>
    </rdf:RDF>
  </metadata>
  <g
     transform="translate(0,-117)"
     id="layer1">
    <path
       d="M 118.06282,295.19742 92.6866,224.6598 89.434826,299.55262 87.09793,224.62567 60.862156,294.84812 81.793335,222.86622 35.1417,281.54444 77.292066,219.55367 14.791158,260.94383 74.034738,215.01229 1.8025807,235.06282 72.340201,209.6866 -2.5526186,206.43483 72.374328,204.09793 2.1518773,177.86216 74.133779,198.79334 15.45556,152.1417 77.446326,194.29207 36.056171,131.79116 81.987714,191.03474 61.93718,118.80258 87.3134,189.3402 l 3.251774,-74.89282 2.336896,74.92695 26.23577,-70.22245 -20.931175,71.9819 46.651635,-58.67822 -42.15037,61.99077 62.50091,-41.39016 -59.24358,45.93154 72.23216,-20.05053 -70.53762,25.37622 74.89282,3.25177 -74.92695,2.3369 70.22245,26.23577 -71.9819,-20.93118 58.67822,46.65164 -61.99077,-42.15037 41.39016,62.50091 -45.931544,-59.24358 z"
       id="path815"
       style="opacity:1;fill:url(#radialGradient825);fill-opacity:1;stroke:none;stroke-width:0;stroke-linecap:round;stroke-linejoin:round;stroke-miterlimit:4;stroke-dasharray:none;stroke-dashoffset:3.96850467;stroke-opacity:1;paint-order:normal" />
  </g>
</svg>
